<?xml version="1.0" standalone="no"?>
<!DOCTYPE svg PUBLIC "-//W3C//DTD SVG 20010904//EN"
 "http://www.w3.org/TR/2001/REC-SVG-20010904/DTD/svg10.dtd">
<svg version="1.0" xmlns="http://www.w3.org/2000/svg"
 width="3300.000000pt" height="3300.000000pt" viewBox="0 0 3300.000000 3300.000000"
 preserveAspectRatio="xMidYMid meet">

<g transform="translate(0.000000,3300.000000) scale(0.100000,-0.100000)"
fill="#000000" stroke="none">
<path d="M16835 32153 c-192 -162 -707 -595 -1142 -961 l-793 -666 0 -792 0
-793 -240 -198 -240 -198 0 -322 c0 -298 -1 -322 -17 -327 -10 -3 -90 -21
-178 -41 -596 -134 -1300 -344 -1899 -566 l-169 -62 39 -24 c22 -12 447 -267
946 -566 l908 -542 0 -1692 0 -1691 -101 -74 c-56 -40 -149 -108 -208 -150
-58 -42 -405 -294 -771 -560 l-665 -484 0 -1509 0 -1508 590 -249 c531 -225
1694 -717 2318 -981 l237 -100 0 -909 0 -908 63 0 64 0 6 2008 c4 1104 7 3022
7 4262 1 1240 2 2255 3 2256 2 2 1003 -564 1597 -902 l235 -133 3 2064 c1
1136 1 2994 0 4129 l-3 2064 -115 -94 -115 -94 -5 804 -5 803 -350 -294z"/>
<path d="M21258 27012 l-3 -828 -215 117 c-118 65 -223 117 -232 115 -10 -2
-18 3 -20 15 -2 14 -255 -193 -1063 -873 l-1060 -891 -5 -1295 -5 -1294 450
-255 c248 -141 500 -284 560 -319 l110 -63 3 -668 2 -669 502 -247 c276 -136
503 -246 504 -244 1 1 8 1530 14 3397 7 1867 14 3397 15 3398 2 2 647 -400
1434 -895 l1430 -898 -2 -1250 -2 -1250 -527 -450 -527 -450 0 -1481 -1 -1481
-402 -349 c-222 -192 -417 -360 -433 -374 l-30 -24 1 -461 c0 -253 1 -705 2
-1004 l2 -544 43 8 c23 3 65 9 92 11 28 3 84 11 125 19 41 8 121 19 177 25
103 10 202 27 322 56 35 9 119 18 185 21 164 8 508 5 518 -5 9 -9 -12 -52 -32
-63 -8 -5 -45 -21 -81 -38 -37 -16 -70 -34 -73 -39 -3 -6 -21 -14 -39 -18 -17
-3 -48 -15 -67 -25 -19 -11 -42 -19 -50 -19 -8 0 -24 -7 -34 -15 -11 -8 -26
-15 -34 -15 -15 0 -101 -37 -152 -65 -21 -11 -90 -29 -200 -51 -38 -7 -94 -26
-105 -34 -5 -4 -39 -16 -75 -25 -36 -10 -83 -26 -105 -36 -22 -9 -56 -20 -76
-23 -37 -6 -59 -12 -94 -26 -46 -19 -61 -24 -71 -25 -6 0 -18 -5 -25 -11 -8
-6 -27 -14 -44 -18 -16 -4 -47 -15 -67 -24 l-37 -17 -1 -202 0 -202 56 26 c48
22 77 27 217 35 89 5 214 13 277 17 63 4 116 7 117 6 1 0 -14 -10 -34 -20 -74
-40 -193 -119 -232 -155 -9 -9 -32 -22 -51 -30 -40 -15 -56 -27 -48 -35 3 -3
419 21 924 54 1854 121 2045 133 2049 129 5 -4 94 -494 635 -3473 170 -940
330 -1804 354 -1920 25 -115 62 -308 83 -427 21 -120 40 -218 43 -218 3 0 401
1023 884 2273 1209 3122 1547 3991 1556 3997 10 6 2400 164 2404 159 4 -5
-1991 -4909 -3467 -8519 -106 -261 -272 -666 -367 -900 -95 -234 -176 -428
-179 -432 -3 -3 -676 -50 -1494 -104 -1173 -77 -1490 -95 -1496 -85 -5 7 -20
67 -34 134 -14 67 -69 320 -122 562 -119 544 -326 1500 -659 3040 -140 649
-312 1441 -381 1760 -69 319 -225 1037 -345 1595 -120 558 -244 1130 -275
1270 -31 140 -59 270 -62 288 -5 30 -8 32 -52 33 -85 2 -241 16 -275 25 -22 5
-27 17 -50 112 -37 157 -42 202 -23 202 8 0 17 -4 19 -9 2 -5 26 -20 53 -35
28 -14 57 -30 65 -35 8 -4 51 -25 95 -45 44 -21 88 -42 97 -47 26 -13 29 -11
23 14 -2 12 -29 136 -60 276 -30 139 -56 256 -59 258 -6 7 -70 -28 -79 -43 -4
-8 -14 -14 -21 -14 -8 0 -19 -6 -25 -14 -7 -8 -26 -18 -42 -21 -18 -4 -29 -13
-29 -23 -1 -44 -105 -78 -270 -89 l-115 -8 -9 -112 c-8 -106 -8 -112 13 -134
20 -22 21 -24 5 -36 -10 -7 -21 -13 -25 -13 -6 0 -19 -61 -34 -156 -5 -33 -11
-42 -28 -43 -12 0 -33 -3 -47 -5 -14 -2 -31 -4 -39 -5 -7 0 -11 -7 -7 -16 3
-9 -1 -18 -10 -22 -13 -5 -13 -7 1 -23 14 -15 14 -18 0 -30 -8 -7 -12 -16 -9
-21 3 -5 0 -9 -7 -9 -9 0 -9 -3 1 -15 6 -8 9 -23 5 -35 -4 -12 -2 -27 4 -33 6
-8 7 -27 2 -49 -6 -23 -5 -40 2 -47 8 -8 7 -11 -3 -11 -9 0 -6 -8 9 -24 14
-14 18 -25 11 -28 -8 -2 -8 -11 -1 -30 7 -19 7 -28 -2 -31 -8 -2 -6 -13 5 -38
9 -19 17 -38 18 -44 1 -5 7 -19 13 -30 15 -27 17 -44 7 -50 -5 -3 -7 -15 -5
-27 5 -24 -52 -564 -60 -579 -4 -5 -11 -9 -17 -9 -5 0 -23 -11 -40 -25 -16
-14 -35 -25 -42 -25 -7 0 -18 -10 -25 -23 -13 -24 -86 -61 -102 -52 -5 3 -29
7 -53 9 l-44 2 -6 -40 c-7 -49 -109 -974 -136 -1236 -11 -102 -42 -385 -70
-630 -27 -245 -162 -1475 -300 -2735 -328 -3010 -326 -2995 -331 -3000 -6 -6
-2713 -184 -2719 -178 -2 2 6 97 18 211 13 114 133 1217 267 2452 388 3562
425 3913 420 3918 -2 3 -6 -1 -8 -9 -23 -80 -63 -189 -69 -189 -4 0 -8 -10 -8
-22 0 -30 -16 -12 -27 30 -10 40 84 296 -975 -2653 -781 -2176 -961 -2675
-1238 -3445 -78 -217 -147 -400 -153 -406 -7 -7 -96 -16 -217 -23 -113 -7
-513 -32 -890 -57 -377 -25 -701 -44 -720 -42 -33 3 -35 6 -42 48 -14 80 -302
1879 -588 3675 -154 963 -293 1833 -309 1935 -16 102 -62 385 -101 630 -39
244 -72 445 -73 447 -3 2 -84 -722 -127 -1132 -10 -93 -84 -771 -164 -1505
-442 -4038 -462 -4221 -468 -4225 -5 -3 -2191 -146 -2193 -143 -3 5 32 337
395 3663 154 1414 289 2653 300 2755 11 102 88 806 170 1565 83 759 158 1445
166 1525 9 80 19 148 23 152 3 4 519 41 1146 83 627 41 1214 80 1304 86 l163
11 73 53 c40 29 120 76 177 105 103 53 161 90 139 90 -6 0 -183 -11 -394 -25
-210 -13 -564 -36 -787 -50 -223 -14 -612 -39 -864 -55 -253 -16 -461 -28
-463 -26 -2 1 -2 1108 -1 2458 l3 2455 103 -44 c57 -24 105 -43 105 -41 1 2 0
1999 -3 4440 l-5 4436 -265 -222 c-146 -122 -611 -511 -1035 -865 l-770 -644
-5 -103 -5 -103 -215 -148 c-1479 -1023 -2673 -2221 -3600 -3613 -1173 -1760
-1825 -3677 -1940 -5699 -13 -232 -13 -900 0 -1131 100 -1775 609 -3430 1523
-4955 96 -160 347 -546 428 -657 33 -46 49 -78 49 -98 0 -17 -18 -198 -40
-403 -222 -2040 -208 -1919 -245 -2092 -79 -370 -195 -571 -391 -681 -309
-173 -895 -199 -1529 -68 -152 31 -216 29 -292 -9 -68 -35 -138 -115 -158
-180 -16 -52 -266 -2303 -267 -2407 -2 -80 25 -151 80 -211 60 -67 116 -92
266 -120 67 -12 124 -25 128 -28 3 -3 -3 -85 -13 -181 -27 -239 -18 -319 53
-469 32 -67 57 -101 117 -161 139 -140 258 -179 731 -244 314 -44 515 -57 915
-63 1148 -16 2010 135 2730 481 770 369 1394 1000 1690 1709 15 37 29 66 31
65 1 -2 -9 -100 -22 -218 -26 -239 -24 -275 23 -363 35 -63 91 -111 162 -138
48 -18 72 -20 170 -17 l113 4 -6 -45 c-24 -190 -37 -365 -31 -426 14 -147 80
-289 185 -392 111 -110 246 -171 400 -180 50 -3 399 16 850 46 421 28 916 60
1100 71 184 12 371 28 415 36 227 42 425 221 489 444 9 30 36 237 61 460 25
223 50 450 57 505 l12 100 12 -72 c30 -172 151 -284 311 -287 55 -1 64 -4 68
-21 2 -11 23 -137 46 -280 56 -355 88 -434 226 -566 103 -98 228 -157 368
-174 28 -3 496 24 1042 60 858 57 1001 68 1060 86 124 39 215 95 296 183 84
93 95 116 321 746 l81 225 45 -12 c29 -8 81 -10 148 -6 85 4 102 3 102 -9 0
-8 -9 -98 -21 -199 -21 -191 -20 -255 8 -364 64 -254 290 -445 555 -470 38 -4
520 24 1197 69 623 42 1137 73 1141 71 5 -3 41 -1 82 4 40 5 123 12 183 16
l110 5 -72 -42 c-40 -23 -70 -45 -65 -49 16 -16 220 -32 327 -25 201 12 384
63 576 163 193 100 371 255 520 453 78 102 199 324 185 337 -4 4 -31 -5 -61
-20 -30 -15 -55 -25 -55 -23 0 3 9 25 20 51 11 26 15 43 8 39 -7 -4 -83 -58
-170 -120 -206 -147 -279 -192 -418 -257 l-116 -54 13 66 c7 36 37 298 68 581
132 1241 215 2011 225 2090 5 47 26 231 45 410 19 179 44 406 54 505 31 287
105 956 202 1840 49 451 118 1079 152 1395 l63 575 49 3 50 3 83 -388 c46
-213 234 -1085 418 -1938 184 -852 377 -1746 429 -1985 52 -239 130 -601 174
-805 44 -203 83 -386 86 -405 5 -32 93 -435 165 -759 42 -186 83 -248 201
-300 25 -11 70 -23 100 -27 l55 -6 63 -292 c35 -160 73 -316 86 -348 71 -176
242 -327 420 -371 109 -28 157 -28 525 -2 201 13 876 58 1500 99 1278 85 1235
81 1310 102 141 40 294 159 367 284 40 71 4069 9955 4090 10035 20 78 20 223
-1 305 -58 232 -250 416 -486 466 -65 14 -103 15 -295 5 -121 -6 -239 -14
-262 -17 l-42 -6 11 38 c16 60 5 161 -25 220 -34 67 -113 138 -180 160 -52 18
-186 22 -269 8 -21 -3 -38 -2 -38 3 0 6 9 90 20 189 70 641 80 1425 25 2074
-139 1634 -661 3225 -1524 4645 -377 620 -830 1223 -1347 1791 -134 148 -696
709 -725 725 -18 9 -19 7 -14 -18 5 -26 4 -26 -7 4 -7 17 -22 42 -33 56 -28
33 -228 209 -273 241 l-38 26 -69 -21 c-143 -42 -253 -42 -397 2 -50 16 -83
20 -116 15 l-46 -6 34 35 c46 48 24 44 -46 -8 -66 -48 -112 -101 -173 -197
-50 -80 -53 -71 -6 19 108 205 295 334 519 358 l69 8 -169 133 c-616 482
-1322 934 -2034 1300 -172 89 -221 110 -208 92 26 -36 64 -111 72 -140 4 -14
-8 2 -25 34 -31 59 -127 166 -150 166 -8 0 -8 -4 1 -15 11 -13 7 -15 -28 -15
-22 0 -59 -7 -82 -15 -23 -8 -75 -15 -115 -15 -40 0 -92 7 -115 15 -23 8 -60
15 -81 15 -32 0 -37 3 -32 17 6 14 2 14 -23 -4 -41 -30 -77 -70 -114 -128 -41
-62 -30 -29 13 44 60 101 165 176 281 202 l58 13 -58 29 c-164 83 -681 296
-1014 417 -407 148 -976 324 -1365 421 -88 22 -168 42 -177 45 -17 5 -18 -41
-20 -824z m4087 -1408 c102 -50 210 -182 239 -294 4 -14 -7 3 -24 37 -31 64
-116 165 -154 185 -21 11 -21 11 -2 -11 l19 -21 -44 0 c-24 0 -66 -7 -93 -15
-64 -19 -159 -19 -226 1 -29 9 -70 14 -91 12 l-38 -3 16 24 16 24 -29 -21
c-43 -30 -88 -81 -123 -136 -38 -61 -40 -53 -5 16 27 53 98 135 148 171 16 11
54 31 85 44 48 20 69 23 151 20 81 -3 104 -8 155 -33z m943 -1219 c75 -7 203
-43 287 -80 166 -74 376 -256 484 -420 97 -148 190 -375 206 -505 4 -35 0 -26
-19 37 -101 329 -318 618 -556 738 -33 17 -33 15 12 -24 26 -23 57 -55 68 -71
l20 -28 -48 15 c-61 19 -169 12 -242 -16 -68 -27 -222 -61 -275 -61 -22 0 -51
-7 -63 -16 -21 -15 -25 -15 -41 0 -10 9 -35 16 -59 16 -44 0 -223 36 -251 50
-56 29 -206 37 -266 14 -27 -11 34 66 86 108 84 67 10 37 -108 -44 -139 -96
-279 -266 -374 -457 -52 -103 -61 -113 -28 -29 89 226 245 438 418 569 147
110 350 191 521 208 83 8 100 8 228 -4z m1543 -971 c43 -22 89 -64 106 -98 15
-31 15 -31 -18 6 l-34 38 -71 -16 c-65 -15 -79 -15 -145 -2 l-74 15 -26 -24
c-15 -13 -35 -42 -44 -64 -24 -51 -31 -44 -9 10 22 57 112 137 167 150 48 11
110 5 148 -15z m-554 -106 c-3 -8 -6 -5 -6 6 -1 11 2 17 5 13 3 -3 4 -12 1
-19z m10 -60 c-3 -8 -6 -5 -6 6 -1 11 2 17 5 13 3 -3 4 -12 1 -19z m316 -804
c277 -71 510 -328 582 -639 9 -37 14 -75 12 -84 -3 -12 -5 -10 -6 5 -3 63 -83
244 -151 344 -42 61 -140 161 -188 192 -40 25 -41 15 -1 -29 16 -19 29 -36 27
-38 -2 -2 -26 1 -53 7 -44 8 -67 6 -175 -21 -184 -46 -287 -43 -473 15 -100
31 -128 30 -167 -2 -44 -38 -47 -24 -5 31 20 26 35 49 33 51 -7 6 -81 -46
-126 -90 -53 -50 -118 -139 -162 -224 -47 -89 -50 -68 -4 30 166 354 518 540
857 452z m-1795 -949 l1482 -800 0 -150 1 -150 30 70 c89 201 265 392 449 485
269 137 598 112 846 -65 208 -149 354 -378 420 -657 l18 -78 82 0 c219 0 470
-88 683 -238 116 -82 291 -263 370 -383 152 -229 261 -531 276 -767 l5 -77
-24 115 c-59 272 -183 545 -335 735 -94 117 -236 243 -346 306 l-40 23 55 -60
c31 -32 67 -74 80 -93 22 -31 22 -34 4 -27 -70 27 -140 37 -208 30 -39 -4 -73
-8 -76 -9 -3 -1 -43 -13 -90 -28 -123 -38 -219 -55 -353 -63 l-118 -7 -21 -40
-20 -41 -13 30 c-21 50 -49 66 -147 84 -51 9 -104 22 -118 27 -120 48 -290 56
-384 17 -19 -7 -19 -7 0 25 10 18 54 66 97 107 81 76 75 82 -23 24 -145 -85
-290 -220 -392 -365 -65 -92 -150 -243 -185 -328 -41 -103 -40 -64 2 45 194
502 579 847 1048 939 54 10 111 19 127 19 26 0 30 4 30 27 0 104 -93 313 -197
443 -67 83 -159 166 -217 197 -28 15 -27 13 12 -32 47 -53 52 -70 21 -60 -42
14 -121 12 -167 -2 -107 -34 -189 -54 -257 -63 -94 -12 -267 2 -384 31 l-91
23 -80 -26 c-44 -14 -80 -24 -80 -22 0 13 58 95 94 133 l41 44 -40 -23 c-140
-82 -257 -216 -349 -397 l-36 -73 2 -1250 3 -1251 54 76 c107 149 281 290 440
356 229 95 507 89 729 -16 207 -98 399 -291 511 -513 44 -87 97 -250 114 -352
9 -48 15 -147 15 -230 l0 -145 -8 125 c-17 264 -82 463 -216 667 -63 94 -166
204 -239 253 -50 34 -50 31 3 -34 13 -16 32 -46 43 -68 l20 -39 -41 21 c-52
27 -129 32 -202 15 -31 -7 -60 -15 -65 -18 -4 -3 -24 -8 -43 -11 -179 -30
-219 -34 -360 -33 -146 2 -157 1 -187 -20 -17 -13 -33 -23 -36 -23 -2 0 -12
18 -22 40 -21 46 -37 54 -135 66 -28 3 -64 -1 -95 -10 -27 -8 -51 -13 -53 -11
-7 6 53 95 88 133 39 41 27 41 -36 0 -67 -43 -190 -169 -241 -247 l-43 -64 0
-278 0 -278 -137 61 c-76 33 -444 194 -818 358 -374 164 -898 394 -1165 512
-267 118 -623 275 -792 349 l-307 134 -1 1903 0 1903 128 -68 c71 -37 795
-428 1610 -868z m2399 173 c-3 -8 -6 -5 -6 6 -1 11 2 17 5 13 3 -3 4 -12 1
-19z m-432 -2630 c-4 -18 -12 -37 -18 -43 -7 -7 -8 -4 -3 8 3 11 9 30 12 43 9
36 17 29 9 -8z m-4123 -244 c109 -46 262 -113 340 -148 138 -62 563 -249 1468
-644 239 -104 667 -292 950 -417 627 -277 887 -390 920 -400 14 -4 84 -36 155
-70 72 -34 207 -95 302 -136 l172 -74 1 -442 c0 -243 4 -444 8 -447 4 -2 28 4
52 15 65 30 109 44 235 76 11 3 97 7 190 9 94 2 177 6 185 9 8 3 2 -5 -14 -18
l-29 -24 33 -6 c18 -4 69 -31 114 -60 45 -29 115 -75 156 -101 149 -97 285
-252 370 -423 36 -74 90 -228 90 -259 0 -24 14 -16 40 23 31 45 111 109 170
136 34 15 67 21 135 21 80 1 97 -2 150 -28 36 -18 84 -54 119 -90 69 -70 59
-92 -11 -25 -30 30 -41 36 -33 21 11 -23 11 -24 -17 -18 -17 4 -47 0 -72 -9
-69 -24 -166 -28 -252 -11 -43 8 -87 12 -99 9 -20 -5 -21 -3 -16 18 5 18 -8 9
-48 -35 -54 -57 -86 -69 -86 -31 0 33 -76 201 -129 285 -66 104 -156 209 -204
238 l-34 20 33 -65 c38 -73 44 -109 17 -98 -53 22 -175 14 -248 -15 -40 -16
-62 -22 -175 -45 -63 -13 -148 -27 -187 -30 -40 -4 -73 -11 -73 -15 0 -12 -80
-48 -119 -54 -18 -2 -38 -9 -44 -15 -6 -6 -28 -11 -48 -11 -21 0 -41 -4 -44
-10 -3 -5 -24 -10 -45 -10 -77 0 -70 60 -70 -652 l0 -639 -477 -1234 -478
-1235 -76 0 -76 0 -207 1148 c-114 631 -216 1185 -227 1231 -49 214 -203 383
-416 458 -77 28 -81 28 -273 24 -107 -2 -231 -4 -274 -5 l-79 -1 -19 99 c-11
54 -28 117 -40 140 -49 99 -149 166 -258 173 -57 4 -271 -9 -1340 -82 -118 -8
-243 -17 -277 -20 l-63 -6 0 2060 0 2060 38 -16 c20 -8 126 -53 234 -99z
m6825 -176 c-2 -13 -4 -3 -4 22 0 25 2 35 4 23 2 -13 2 -33 0 -45z m-1336
-1679 c-6 -16 -10 -18 -10 -7 -1 22 12 55 16 42 2 -6 -1 -22 -6 -35z m506 -9
c29 -13 52 -34 73 -66 16 -27 30 -53 30 -58 0 -6 -12 9 -27 34 -15 24 -28 39
-31 32 -2 -7 -8 -10 -12 -7 -5 3 -29 1 -53 -5 -27 -5 -72 -6 -111 -1 -65 7
-68 7 -86 -19 -10 -14 -23 -41 -28 -60 -9 -29 -10 -31 -11 -10 -1 34 31 100
60 126 63 56 125 67 196 34z m-20537 -3322 c0 -23 -276 -2578 -305 -2818 -8
-69 -96 -870 -195 -1780 -206 -1890 -227 -2055 -305 -2460 -161 -830 -366
-1350 -695 -1756 -91 -112 -297 -316 -418 -412 -584 -467 -1271 -700 -2312
-784 -250 -20 -1011 -17 -1249 5 -198 19 -443 52 -609 82 -85 16 -92 19 -87
39 2 11 12 93 20 181 9 88 52 486 95 885 43 399 91 835 105 970 15 135 29 247
31 249 1 2 65 -8 141 -22 208 -40 246 -45 405 -62 193 -20 534 -20 707 1 317
37 576 137 751 292 207 183 347 518 415 997 8 61 146 1307 305 2770 335 3069
376 3445 381 3449 2 2 400 29 884 61 484 32 1089 72 1345 90 543 38 590 40
590 23z"/>
<path d="M17890 22516 c0 -3 9 -10 20 -16 11 -6 20 -8 20 -6 0 3 -9 10 -20 16
-11 6 -20 8 -20 6z"/>
<path d="M17960 22476 c0 -3 9 -10 20 -16 11 -6 20 -8 20 -6 0 3 -9 10 -20 16
-11 6 -20 8 -20 6z"/>
<path d="M18010 22446 c0 -2 7 -7 16 -10 8 -3 12 -2 9 4 -6 10 -25 14 -25 6z"/>
<path d="M18050 22427 c0 -3 51 -34 113 -70 136 -78 157 -89 157 -83 0 2 -46
30 -102 62 -57 32 -118 66 -135 77 -18 10 -33 17 -33 14z"/>
<path d="M18335 22263 c6 -6 42 -27 80 -48 39 -21 66 -34 60 -28 -5 6 -41 27
-80 48 -38 21 -65 34 -60 28z"/>
<path d="M18495 22173 c6 -6 42 -27 80 -48 39 -21 66 -34 60 -28 -5 6 -41 27
-80 48 -38 21 -65 34 -60 28z"/>
<path d="M18435 20754 c-349 -211 -1160 -690 -2012 -1189 l-392 -230 -1 -2042
0 -2043 24 0 c13 0 63 7 112 16 49 9 99 16 112 16 12 0 22 4 22 9 0 5 3 8 8 7
4 -1 18 2 30 6 17 6 22 14 19 26 -3 11 -1 20 3 22 5 2 11 16 14 31 3 16 10 34
15 41 6 7 12 21 14 32 2 10 8 28 14 39 6 11 12 36 14 55 2 19 7 38 12 41 4 3
9 20 9 37 1 18 6 32 12 32 7 0 7 3 -1 11 -11 11 -5 59 7 59 9 0 5 54 -5 70 -3
6 -2 10 3 10 8 0 12 14 13 53 0 9 4 17 8 17 4 0 6 15 4 33 -6 51 -5 70 4 76 4
3 9 22 10 41 4 50 22 88 47 96 11 3 30 14 41 24 11 9 57 27 103 40 45 12 82
26 82 30 0 4 14 7 31 7 17 0 34 5 39 12 6 11 8 11 12 0 4 -11 11 -9 34 6 16
11 35 18 43 17 7 -2 11 0 9 5 -3 4 3 16 14 26 10 9 18 14 18 11 0 -4 6 -1 13
5 8 6 17 8 20 4 4 -3 16 2 27 12 11 10 20 15 20 12 0 -4 9 2 20 13 12 12 25
18 30 15 6 -4 10 3 10 15 0 12 5 18 10 15 19 -12 31 45 21 99 -6 28 -13 67
-15 86 -3 19 -12 58 -20 85 -8 28 -26 91 -40 141 -15 51 -34 109 -43 130 -19
44 -21 57 -30 137 l-6 58 51 -31 c28 -17 63 -46 78 -63 38 -47 273 -287 280
-287 3 0 15 -11 26 -25 11 -14 28 -25 39 -25 11 0 22 -7 25 -15 4 -8 14 -15
24 -15 10 0 25 -10 34 -22 11 -15 19 -19 22 -11 3 7 12 9 20 6 8 -3 14 0 14 7
0 6 5 8 12 4 8 -5 9 0 5 15 -3 13 -3 21 0 18 3 -3 14 3 26 14 11 10 27 19 34
19 7 0 13 10 13 23 0 17 10 28 35 40 19 9 35 23 35 30 0 14 40 37 65 37 8 0
15 5 15 10 0 6 9 19 21 31 20 20 21 29 20 322 -1 166 -3 322 -6 347 -2 25 -7
115 -10 200 -3 85 -8 175 -10 200 -3 25 -8 99 -11 165 -3 66 -8 145 -10 175
-2 30 2 67 7 82 l11 28 20 -25 c11 -14 30 -68 43 -121 13 -52 29 -109 34 -127
12 -37 20 -64 131 -467 28 -102 55 -194 60 -205 5 -11 21 -58 35 -105 14 -47
29 -94 34 -105 5 -11 23 -60 39 -110 16 -49 40 -113 53 -142 20 -43 27 -51 44
-47 12 3 32 -3 47 -15 14 -12 39 -22 55 -23 15 -1 31 -7 35 -13 4 -5 9 866 10
1938 2 1071 1 1947 -2 1947 -3 0 -32 -16 -65 -36z"/>
<path d="M15450 14866 c0 -254 3 -324 13 -322 24 5 72 31 95 51 22 19 22 23
22 266 l0 246 -25 13 c-14 7 -25 17 -25 21 0 5 -18 18 -40 29 l-40 20 0 -324z"/>
<path d="M16030 14826 c0 -95 8 -116 30 -76 6 11 17 20 25 20 8 0 15 9 15 19
0 11 6 21 13 24 9 3 7 9 -6 24 -9 11 -15 22 -12 25 3 3 -10 17 -30 32 l-35 27
0 -95z"/>
<path d="M14928 13562 c-28 -2 -38 -8 -38 -20 1 -9 25 -171 53 -359 l53 -341
-149 4 -149 4 6 -28 c3 -15 71 -430 151 -922 80 -492 202 -1237 270 -1655 69
-418 144 -876 167 -1017 24 -142 45 -258 48 -258 3 0 45 112 94 248 48 136
207 576 351 977 145 402 316 876 380 1055 64 179 143 397 175 485 40 112 55
164 48 172 -6 7 -8 31 -6 53 2 29 0 40 -10 40 -10 0 -12 6 -7 18 10 24 11 75
1 90 -4 7 -4 21 -1 32 5 14 2 20 -10 20 -13 0 -14 4 -4 22 10 18 9 20 -5 15
-13 -5 -15 -1 -11 20 2 15 -2 37 -10 50 -8 12 -14 32 -12 45 1 15 -3 23 -13
22 -28 -2 -14 76 44 250 31 93 54 171 51 174 -2 3 -10 0 -17 -5 -7 -6 -24 -14
-38 -18 -14 -4 -53 -20 -87 -36 -34 -16 -71 -29 -82 -29 -11 0 -22 -4 -25 -9
-3 -5 -22 -11 -41 -13 -38 -4 -52 13 -38 48 11 29 69 118 87 133 9 7 16 19 16
25 0 7 19 35 43 63 24 28 49 65 57 82 7 17 16 31 21 31 4 0 11 10 15 23 3 12
13 30 22 40 8 9 12 17 8 17 -3 0 5 22 20 49 20 39 23 54 15 68 -6 10 -11 14
-11 9 0 -5 -7 -3 -15 4 -8 7 -15 9 -15 6 0 -4 -13 7 -30 24 -17 17 -40 30 -54
30 -14 0 -45 11 -70 25 -25 14 -51 22 -59 19 -8 -3 -18 -1 -22 5 -3 6 -19 11
-36 11 l-29 0 -1 -432 c-1 -262 -4 -419 -10 -398 -4 19 -17 98 -29 175 -26
178 -87 535 -101 598 -10 41 -14 47 -37 47 -15 0 -49 7 -76 15 -27 8 -73 15
-103 15 -30 0 -84 6 -121 14 -37 8 -88 18 -114 21 -27 3 -48 10 -48 16 0 5 -9
9 -19 9 -10 0 -21 6 -24 14 -3 7 -26 16 -51 19 -25 4 -54 11 -63 16 -10 5 -35
16 -56 25 -21 9 -40 22 -43 30 -3 7 -15 11 -27 9 -12 -2 -49 0 -82 4 -33 4
-77 7 -97 5z"/>
<path d="M26063 3126 c-83 -6 -154 -13 -157 -16 -3 -3 -9 -32 -14 -64 l-9 -59
156 7 c200 9 199 9 206 55 4 20 9 48 11 64 5 23 3 27 -18 26 -13 -1 -91 -7
-175 -13z"/>
<path d="M25375 3093 c-33 -1 -79 -5 -101 -8 l-42 -6 -6 -52 c-4 -29 -12 -80
-17 -114 l-11 -63 -53 0 c-29 0 -66 -3 -83 -6 -32 -7 -32 -7 -48 -97 l-6 -37
86 6 87 7 -6 -39 c-96 -625 -99 -660 -58 -706 40 -46 69 -50 278 -37 l193 12
7 36 c3 20 8 49 11 64 l6 29 -86 -4 c-53 -2 -86 1 -86 7 1 38 98 646 104 652
4 4 43 10 86 11 l78 4 6 37 c4 20 9 49 12 64 l6 29 -86 -4 c-53 -2 -86 1 -86
7 0 6 7 53 15 105 8 52 15 98 15 103 0 7 -82 7 -215 0z"/>
<path d="M28818 3070 c-252 -16 -280 -20 -318 -41 -59 -34 -79 -73 -101 -202
-32 -191 -23 -249 45 -281 40 -19 103 -20 300 -6 77 6 141 8 144 5 3 -2 -3
-63 -13 -134 l-18 -129 -45 -6 c-25 -3 -67 -6 -95 -6 l-49 0 5 33 c4 17 9 49
13 70 l6 38 -103 -7 c-57 -3 -138 -9 -179 -13 l-74 -6 -9 -40 c-5 -22 -7 -66
-5 -97 5 -68 30 -101 86 -115 45 -12 607 20 665 37 51 15 119 84 134 135 7 22
20 97 29 167 17 120 17 130 1 163 -28 58 -41 60 -285 47 -118 -6 -217 -10
-219 -8 -3 3 36 258 40 262 1 1 42 4 90 6 l88 4 -6 -70 -7 -71 174 10 173 10
12 55 c23 113 12 170 -38 196 -34 17 -83 17 -441 -6z"/>
<path d="M27740 3008 c-173 -11 -316 -21 -317 -21 -4 -5 -140 -923 -137 -926
5 -5 343 14 349 20 2 3 32 182 64 398 33 217 61 395 63 396 2 1 44 5 94 9 l91
6 -18 -117 c-70 -450 -102 -674 -97 -679 6 -6 339 14 346 20 5 5 122 785 122
814 0 35 -25 77 -55 90 -34 16 -121 14 -505 -10z"/>
<path d="M23743 2986 c-83 -6 -154 -14 -157 -17 -5 -4 -176 -1121 -176 -1146
0 -8 345 8 353 17 2 3 41 255 86 560 46 305 85 565 88 578 4 18 1 22 -18 21
-13 -1 -92 -7 -176 -13z"/>
<path d="M26739 2940 c-203 -13 -283 -22 -306 -33 -40 -21 -90 -79 -97 -114
-16 -74 -96 -632 -96 -666 0 -51 23 -93 63 -113 38 -20 87 -20 427 1 205 13
252 19 288 36 47 23 97 78 112 124 11 36 100 632 100 674 0 43 -20 80 -51 97
-34 17 -83 17 -440 -6z m138 -137 c-3 -10 -27 -160 -53 -334 l-47 -317 -45 -6
c-25 -3 -67 -6 -94 -6 l-49 0 6 33 c10 54 95 618 95 628 0 4 35 10 78 12 42 1
85 4 95 5 13 1 17 -3 14 -15z"/>
<path d="M26032 2897 c-154 -9 -162 -10 -167 -31 -5 -24 -135 -891 -135 -903
0 -8 345 8 353 17 5 6 137 887 137 913 0 9 -6 16 -12 15 -7 0 -86 -6 -176 -11z"/>
<path d="M22155 2893 c-33 -2 -186 -12 -340 -22 -294 -19 -317 -23 -373 -75
-44 -39 -61 -91 -87 -261 -30 -200 -31 -230 -5 -273 38 -62 61 -65 329 -49
130 9 238 14 240 11 4 -4 -46 -345 -52 -350 -1 -1 -54 -6 -116 -10 l-114 -7 7
54 c4 30 10 74 13 98 l6 44 -69 -6 c-38 -4 -124 -10 -192 -13 -140 -8 -124 6
-142 -128 -16 -127 11 -185 95 -203 49 -11 727 30 767 45 45 18 106 81 122
125 9 23 27 122 41 219 l26 177 -19 44 c-14 31 -30 48 -57 61 -35 17 -51 17
-279 4 -132 -8 -242 -15 -243 -14 -1 1 11 80 25 177 l26 177 60 6 c58 6 176 8
176 4 0 -2 -7 -41 -14 -88 -8 -47 -11 -88 -8 -91 8 -6 368 14 375 21 8 8 27
145 27 190 0 105 -65 144 -225 133z"/>
<path d="M24730 2818 c-74 -5 -136 -11 -138 -13 -2 -1 -30 -180 -63 -396 -33
-217 -62 -395 -64 -397 -1 -2 -44 -6 -94 -9 l-92 -6 5 24 c12 51 118 770 115
773 -2 2 -83 -2 -179 -8 l-175 -11 -57 -375 c-31 -206 -57 -390 -58 -408 0
-47 25 -95 62 -116 37 -23 79 -23 427 -1 258 17 292 24 345 73 52 49 63 93
121 479 30 203 55 377 55 386 0 19 1 19 -210 5z"/>
<path d="M22889 2710 c-203 -13 -283 -22 -306 -33 -40 -21 -90 -79 -97 -114
-16 -74 -96 -632 -96 -666 0 -51 23 -93 63 -113 38 -20 87 -20 427 1 205 13
252 19 288 36 47 23 97 78 112 124 11 36 100 632 100 674 0 43 -20 80 -51 97
-34 17 -83 17 -440 -6z m138 -137 c-3 -10 -27 -160 -53 -334 l-47 -317 -45 -6
c-25 -3 -67 -6 -94 -6 l-49 0 6 33 c10 54 95 618 95 628 0 4 35 10 78 12 42 1
85 4 95 5 13 1 17 -3 14 -15z"/>
<path d="M18673 2686 c-83 -6 -154 -13 -157 -16 -3 -3 -9 -32 -14 -64 l-9 -59
156 7 c200 9 199 9 206 55 4 20 9 48 11 64 5 23 3 27 -18 26 -13 -1 -91 -7
-175 -13z"/>
<path d="M20469 2565 c-264 -17 -363 -27 -385 -38 -44 -23 -81 -67 -93 -112
-14 -48 -101 -627 -101 -668 0 -79 58 -130 149 -129 82 0 290 12 333 18 l38 6
-6 -34 c-14 -84 6 -75 -184 -83 -120 -5 -175 -11 -184 -21 -12 -11 -32 -112
-24 -119 8 -8 577 34 603 45 49 19 94 58 116 101 15 30 39 166 95 537 40 273
74 503 74 510 0 15 17 15 -431 -13z m56 -147 c-2 -13 -25 -162 -50 -333 -26
-170 -48 -311 -50 -313 -1 -2 -44 -6 -94 -9 l-92 -6 5 24 c6 27 96 625 96 639
0 5 35 11 78 13 42 1 85 4 95 5 13 2 16 -3 12 -20z"/>
<path d="M19310 2498 c-173 -11 -316 -21 -317 -21 -4 -5 -140 -923 -137 -926
5 -5 343 14 349 20 2 3 32 182 64 398 33 217 61 395 63 396 2 1 44 5 94 9 l91
6 -18 -117 c-70 -450 -102 -674 -97 -679 6 -6 339 14 346 20 5 5 122 785 122
814 0 35 -25 77 -55 90 -34 16 -121 14 -505 -10z"/>
<path d="M15063 2466 c-83 -6 -154 -14 -157 -17 -5 -4 -176 -1121 -176 -1146
0 -8 345 8 353 17 2 3 41 255 86 560 46 305 85 565 88 578 4 18 1 22 -18 21
-13 -1 -92 -7 -176 -13z"/>
<path d="M18642 2457 c-154 -9 -162 -10 -167 -31 -5 -24 -135 -891 -135 -903
0 -8 345 8 353 17 5 6 137 887 137 913 0 9 -6 16 -12 15 -7 0 -86 -6 -176 -11z"/>
<path d="M14570 2443 c-30 -2 -147 -10 -260 -17 -214 -13 -244 -20 -298 -70
-52 -46 -60 -82 -128 -534 -70 -471 -71 -483 -21 -530 12 -12 40 -25 61 -29
48 -10 679 26 687 40 9 13 22 128 15 134 -2 3 -97 -1 -211 -7 -113 -7 -208
-10 -212 -7 -4 5 125 844 132 854 1 2 84 8 186 13 268 16 244 7 255 90 l10 70
-81 -2 c-44 -1 -105 -3 -135 -5z"/>
<path d="M17780 2408 c-173 -11 -316 -21 -317 -21 -4 -5 -140 -923 -137 -926
5 -5 343 14 349 20 2 3 32 182 64 398 33 217 61 395 63 396 2 1 44 5 94 9 l91
6 -18 -117 c-70 -450 -102 -674 -97 -679 6 -6 339 14 346 20 5 5 122 785 122
814 0 35 -25 77 -55 90 -34 16 -121 14 -505 -10z"/>
<path d="M13313 2366 c-83 -6 -154 -14 -157 -17 -5 -4 -176 -1121 -176 -1146
0 -8 345 8 353 17 2 3 41 255 86 560 46 305 85 565 88 578 4 18 1 22 -18 21
-13 -1 -92 -7 -176 -13z"/>
<path d="M16855 2345 c-110 -7 -218 -15 -240 -17 l-40 -3 -12 -60 c-6 -33 -10
-62 -7 -64 2 -2 84 0 182 6 97 5 178 9 179 8 3 -2 -15 -117 -19 -120 -2 -2
-95 -8 -208 -15 -113 -6 -220 -16 -238 -22 -46 -14 -97 -70 -111 -121 -20 -80
-63 -408 -57 -441 8 -41 53 -85 97 -95 42 -9 757 33 768 45 10 12 121 756 121
811 0 30 -7 50 -24 70 -23 26 -30 28 -108 30 -45 0 -173 -5 -283 -12z m21
-417 c-3 -18 -17 -109 -32 -203 -14 -93 -27 -171 -29 -173 -1 -2 -44 -6 -95
-9 -87 -6 -92 -5 -87 13 3 10 18 103 33 206 l28 187 65 4 c36 2 79 4 95 5 27
2 28 0 22 -30z"/>
<path d="M15739 2280 c-293 -19 -310 -22 -361 -77 -36 -38 -42 -65 -93 -408
-50 -335 -51 -344 -30 -389 25 -52 65 -69 159 -67 162 3 688 39 696 48 5 4 12
35 15 67 l8 59 -69 -6 c-118 -11 -465 -30 -468 -26 -2 2 0 29 6 60 l10 57 51
6 c29 3 150 11 270 17 207 12 218 13 222 33 13 57 75 503 75 541 0 32 -7 52
-24 72 -23 26 -30 28 -108 30 -45 1 -207 -7 -359 -17z m137 -147 c-3 -16 -17
-107 -32 -203 -14 -96 -27 -176 -28 -177 -2 -2 -45 -6 -96 -10 l-93 -6 6 24
c3 13 18 106 33 206 l27 182 76 4 c42 1 84 4 94 5 15 2 18 -3 13 -25z"/>
<path d="M11783 2276 c-83 -6 -154 -13 -157 -16 -3 -3 -9 -32 -14 -64 l-9 -59
156 7 c200 9 199 9 206 55 4 20 9 48 11 64 5 23 3 27 -18 26 -13 -1 -91 -7
-175 -13z"/>
<path d="M12535 2095 c-110 -7 -218 -15 -240 -17 l-40 -3 -12 -60 c-6 -33 -10
-62 -7 -64 2 -2 84 0 182 6 97 5 178 9 179 8 3 -2 -15 -117 -19 -120 -2 -2
-95 -8 -208 -15 -113 -6 -220 -16 -238 -22 -46 -14 -97 -70 -111 -121 -20 -80
-63 -408 -57 -441 8 -41 53 -85 97 -95 42 -9 757 33 768 45 10 12 121 756 121
811 0 30 -7 50 -24 70 -23 26 -30 28 -108 30 -45 0 -173 -5 -283 -12z m21
-417 c-3 -18 -17 -109 -32 -203 -14 -93 -27 -171 -29 -173 -1 -2 -44 -6 -95
-9 -87 -6 -92 -5 -87 13 3 10 18 103 33 206 l28 187 65 4 c36 2 79 4 95 5 27
2 28 0 22 -30z"/>
<path d="M11752 2047 c-154 -9 -162 -10 -167 -31 -5 -24 -135 -891 -135 -903
0 -8 345 8 353 17 5 6 137 887 137 913 0 9 -6 16 -12 15 -7 0 -86 -6 -176 -11z"/>
<path d="M11149 2010 c-293 -19 -310 -22 -361 -77 -36 -38 -42 -65 -93 -408
-50 -335 -51 -344 -30 -389 25 -53 65 -69 164 -67 118 2 490 26 495 32 2 2 8
33 12 68 l7 63 -39 -5 c-21 -4 -99 -9 -173 -13 -127 -6 -133 -5 -128 12 3 11
27 161 53 335 l47 316 168 9 c92 5 170 12 173 15 3 3 9 33 12 67 6 57 5 62
-12 61 -10 -1 -143 -9 -295 -19z"/>
<path d="M10390 1964 c-124 -7 -249 -18 -279 -23 -65 -13 -112 -46 -134 -98
-15 -35 -140 -823 -131 -832 5 -5 343 14 349 20 2 3 32 182 64 398 33 217 61
395 63 396 2 2 77 7 167 13 89 5 167 14 171 19 4 4 11 34 15 66 l6 57 -33 -1
c-18 -1 -134 -8 -258 -15z"/>
<path d="M9299 1890 c-293 -19 -310 -22 -361 -77 -36 -38 -42 -65 -93 -408
-50 -335 -51 -344 -30 -389 25 -52 65 -69 159 -67 162 3 688 39 696 48 5 4 12
35 15 67 l8 59 -69 -6 c-118 -11 -465 -30 -468 -26 -2 2 0 29 6 60 l10 57 51
6 c29 3 150 11 270 17 207 12 218 13 222 33 13 57 75 503 75 541 0 32 -7 52
-24 72 -23 26 -30 28 -108 30 -45 1 -207 -7 -359 -17z m137 -147 c-3 -16 -17
-107 -32 -203 -14 -96 -27 -176 -28 -177 -2 -2 -45 -6 -96 -10 l-93 -6 6 24
c3 13 18 106 33 206 l27 182 76 4 c42 1 84 4 94 5 15 2 18 -3 13 -25z"/>
<path d="M8010 1818 c-355 -22 -646 -41 -647 -42 -4 -4 -140 -922 -137 -925 5
-5 343 14 349 20 2 3 32 182 64 398 33 217 61 395 63 396 2 1 44 5 94 9 l91 6
-18 -117 c-70 -450 -102 -674 -97 -679 6 -6 339 14 346 20 2 2 30 181 63 397
33 217 61 395 63 396 1 1 43 5 94 9 l93 7 -5 -24 c-13 -54 -118 -770 -114
-774 6 -6 342 16 349 24 8 9 119 759 119 806 0 22 -7 51 -16 64 -17 23 -72 52
-96 50 -7 -1 -303 -19 -658 -41z"/>
<path d="M4420 1833 c-30 -2 -147 -10 -260 -17 -214 -13 -244 -20 -298 -70
-52 -46 -60 -82 -128 -534 -70 -471 -71 -483 -21 -530 12 -12 40 -25 61 -29
48 -10 679 26 687 40 9 13 22 128 15 134 -2 3 -97 -1 -211 -7 -113 -7 -208
-10 -212 -7 -4 5 125 844 132 854 1 2 84 8 186 13 268 16 244 7 255 90 l10 70
-81 -2 c-44 -1 -105 -3 -135 -5z"/>
<path d="M6420 1718 c-355 -22 -646 -41 -647 -42 -4 -4 -140 -922 -137 -925 5
-5 343 14 349 20 2 3 32 182 64 398 33 217 61 395 63 396 2 1 44 5 94 9 l91 6
-18 -117 c-70 -450 -102 -674 -97 -679 6 -6 339 14 346 20 2 2 30 181 63 397
33 217 61 395 63 396 1 1 43 5 94 9 l93 7 -5 -24 c-13 -54 -118 -770 -114
-774 6 -6 342 16 349 24 8 9 119 759 119 806 0 22 -7 51 -16 64 -17 23 -72 52
-96 50 -7 -1 -303 -19 -658 -41z"/>
<path d="M5099 1640 c-203 -13 -283 -22 -306 -33 -40 -21 -90 -79 -97 -114
-16 -74 -96 -632 -96 -666 0 -51 23 -93 63 -113 38 -20 87 -20 427 1 205 13
252 19 288 36 47 23 97 78 112 124 11 36 100 632 100 674 0 43 -20 80 -51 97
-34 17 -83 17 -440 -6z m138 -137 c-3 -10 -27 -160 -53 -334 l-47 -317 -45 -6
c-25 -3 -67 -6 -94 -6 l-49 0 6 33 c10 54 95 618 95 628 0 4 35 10 78 12 42 1
85 4 95 5 13 1 17 -3 14 -15z"/>
</g>
</svg>
